<?xml version="1.0" encoding="UTF-8"?>
<svg id="Layer_1" data-name="Layer 1" xmlns="http://www.w3.org/2000/svg" viewBox="0 0 20 20">
  <defs>
    <style>
      .cls-1 {
        fill: #ff6b00;
        fill-rule: evenodd;
      }
    </style>
  </defs>
  <g id="Page-1">
    <g id="Dribbble-Light-Preview">
      <g id="icons">
        <path id="instagram-_167_" data-name="instagram-[#167]" class="cls-1" d="M5.87,.12c-1.63,.07-3.04,.47-4.18,1.61C.55,2.87,.16,4.29,.08,5.9c-.05,1.01-.31,8.6,.46,10.59,.52,1.34,1.55,2.38,2.91,2.9,.63,.25,1.36,.41,2.41,.46,8.86,.4,12.15,.18,13.53-3.36,.25-.63,.41-1.35,.46-2.41,.4-8.88-.07-10.81-1.61-12.35C17.03,.51,15.59-.32,5.87,.12m.08,17.94c-.97-.04-1.5-.21-1.85-.34-.88-.34-1.55-1-1.89-1.88-.59-1.51-.4-8.7-.34-9.87,.05-1.14,.28-2.18,1.09-2.98,1-.99,2.28-1.48,11.03-1.08,1.14,.05,2.19,.28,2.99,1.08,1,.99,1.49,2.29,1.09,11.01-.04,.97-.21,1.49-.34,1.84-.9,2.31-2.97,2.63-11.78,2.22M14.09,4.69c0,.66,.53,1.19,1.19,1.19s1.2-.53,1.2-1.19-.54-1.19-1.2-1.19-1.19,.53-1.19,1.19M4.86,9.99c0,2.81,2.29,5.1,5.11,5.1s5.11-2.28,5.11-5.1-2.29-5.1-5.11-5.1-5.11,2.28-5.11,5.1m1.79,0c0-1.83,1.48-3.31,3.32-3.31s3.32,1.48,3.32,3.31-1.48,3.31-3.32,3.31-3.32-1.48-3.32-3.31"/>
      </g>
    </g>
  </g>
</svg>