<?xml version="1.0" encoding="UTF-8"?>
<svg id="Layer_1" data-name="Layer 1" xmlns="http://www.w3.org/2000/svg" viewBox="0 0 20 16">
  <defs>
    <style>
      .cls-1 {
        fill: #ff6b00;
        fill-rule: evenodd;
      }
    </style>
  </defs>
  <g id="Page-1">
    <g id="Dribbble-Light-Preview">
      <g id="icons">
        <path id="twitter-_154_" data-name="twitter-[#154]" class="cls-1" d="M6.29,16c7.55,0,11.68-6.16,11.68-11.49,0-.18,0-.35-.01-.52,.8-.57,1.5-1.28,2.05-2.09-.75,.33-1.54,.54-2.36,.64,.86-.5,1.5-1.3,1.8-2.23-.81,.47-1.69,.8-2.61,.98-1.55-1.63-4.15-1.71-5.81-.18-1.07,.99-1.52,2.46-1.19,3.86C6.55,4.79,3.48,3.26,1.39,.74,.3,2.58,.86,4.94,2.66,6.13c-.65-.02-1.29-.19-1.86-.5v.05c0,1.92,1.38,3.58,3.29,3.96-.6,.16-1.24,.19-1.85,.07,.54,1.65,2.08,2.77,3.83,2.81-1.45,1.12-3.25,1.73-5.1,1.73-.33,0-.65-.02-.98-.06,1.88,1.19,4.06,1.81,6.29,1.81"/>
      </g>
    </g>
  </g>
</svg>